<?xml version="1.0" encoding="utf-8"?>
<!-- Generator: Adobe Illustrator 25.2.3, SVG Export Plug-In . SVG Version: 6.00 Build 0)  -->
<svg version="1.1" id="Warstwa_1" xmlns="http://www.w3.org/2000/svg" xmlns:xlink="http://www.w3.org/1999/xlink" x="0px" y="0px"
	 viewBox="0 0 343.89 415.28" style="enable-background:new 0 0 343.89 415.28;" xml:space="preserve">
<style type="text/css">
	.st0{fill:#F6F6F6;}
	.st1{fill:#60605A;stroke:#2D2D2B;stroke-miterlimit:10;}
	.st2{fill:none;stroke:#2D2D2B;stroke-miterlimit:10;}
	.st3{fill:#FFD46B;}
	.st4{fill:#FFFFFF;stroke:#929191;stroke-width:0.75;stroke-miterlimit:10;}
	.st5{fill:none;stroke:#929191;stroke-width:0.75;stroke-miterlimit:10;}
	.st6{fill:url(#SVGID_1_);stroke:#57A4DA;stroke-width:0.75;stroke-miterlimit:10;}
	.st7{fill:#105FD5;}
	.st8{fill:#06C886;}
	.st9{fill:#21C688;}
	.st10{fill:#2ED4EF;}
	.st11{fill:#2ED4EF;stroke:#4397AD;stroke-miterlimit:10;}
	.st12{fill:none;stroke:#4397AD;stroke-miterlimit:10;}
	.st13{fill:none;stroke:#ECECEC;stroke-width:5;stroke-miterlimit:10;}
	.st14{fill:#ECECEC;}
	.st15{fill:#E7625A;stroke:#C4554C;stroke-miterlimit:10;}
	.st16{fill:#F0CCE2;}
	.st17{fill:#9E5151;}
	.st18{fill:#D96560;}
	.st19{fill:#FFFFFF;}
	.st20{fill:#F1948F;}
</style>
<g>
	<path class="st0" d="M102.95,381.04c-4.76,2.03-9.22,4.69-14.24,6.14c-4.51,1.3-9.3,1.57-13.88,2.64
		c-4.58,1.07-9.24,3.2-11.37,6.92c-0.33,0.57-0.59,1.2-0.48,1.82c0.23,1.29,1.87,1.92,3.3,2.3c20.64,5.51,42.69,5.96,64.42,5.6
		c36.36-0.61,72.67-3.39,108.95-6.16c1.37-0.1,2.76-0.21,4.04-0.68c3.09-1.13,4.78-4.01,6.2-6.66c1.04-1.95,2.11-4.04,1.76-6.13
		c-0.57-3.36-4.65-5.43-8.54-5.73c-3.88-0.3-7.77,0.68-11.66,0.98c-9.83,0.77-19.24-2.71-28.81-4.57
		c-8.71-1.69-17.71-2.05-26.66-2.4c-11.85-0.46-23.78-1.44-35.66-0.63c-5.98,0.41-12.02,0.71-17.96,1.52
		C115.93,376.85,109.06,380.53,102.95,381.04z"/>
	<path class="st1" d="M200.87,58.99c1.93-2.93,6.42-3.69,10.26-1.11c4.91,3.29,2.19,10.36,4.54,15.56c2.11,4.67,7.22,4.19,9.27,1.64
		c1.08-1.35,0.39-2.53-0.73-2.99c-0.66-0.27-0.87-0.24-0.87-0.24s0.49-0.04,0.88-0.02c6.2,0.37,7.96,10.73,1.96,15.18
		c-3.41,2.53-8.1,2.87-11.96,1.19c-1.68-0.68-2.98-2.14-4.71-2.68"/>
	<path class="st2" d="M203.28,62.84c12.85-6.91,3.11,20.5,20.45,16.7"/>
	<path class="st2" d="M210.15,75.25c0.94,1.6,1.73,3.31,2.87,4.78c1.14,1.47,2.72,2.72,4.57,2.93"/>
	<g>
		<g>
			<path class="st3" d="M287.63,144.15c-3.16-1.69-6.62,1.36-8.68,3.48c-1.75,1.8-3.11,3.88-4.55,5.92
				c-1.97,2.8-3.51,6.12-4.43,9.42c-0.73,2.64-1.3,6.31,1.33,8.09c2,1.36,3.88-1.89,1.89-3.24c0.16,0.11,0.08,0.05,0.08,0.04
				c-0.06-0.11-0.06-0.1,0.01,0.05c-0.04-0.12-0.08-0.24-0.11-0.37c-0.04-0.26-0.06-0.66-0.04-1.1c0.06-1.31,0.47-2.61,0.89-3.84
				c0.87-2.51,2.09-4.97,3.62-7.15c0.9-1.29,1.76-2.72,2.79-3.88c1.08-1.22,2.21-2.47,3.58-3.38c0.4-0.27,0.82-0.52,1.27-0.69
				c0,0,0.65-0.14,0.35-0.1c0.19-0.02,0.22,0.05,0.11-0.02C287.86,148.53,289.76,145.3,287.63,144.15L287.63,144.15z"/>
		</g>
	</g>
	<g>
		<g>
			<path class="st3" d="M289.82,146.66c-3.06-0.76-5.43,2.22-6.86,4.49c-1.28,2.03-2.05,4.24-2.9,6.45
				c-1.11,2.88-1.72,6.11-1.75,9.2c-0.03,2.64,0.44,5.96,3.26,6.99c2.27,0.83,3.25-2.79,1-3.62c0.14,0.05,0.08,0.03-0.03-0.18
				c-0.14-0.28-0.26-0.69-0.34-1.1c-0.21-1.09-0.17-2.24-0.09-3.34c0.17-2.36,0.71-4.74,1.56-6.95c0.51-1.33,1.02-2.82,1.63-3.98
				c0.62-1.2,1.32-2.4,2.26-3.38c0.31-0.33,0.64-0.66,1.04-0.87c0.28-0.15,0.35-0.06,0.22-0.09
				C291.16,150.86,292.16,147.24,289.82,146.66L289.82,146.66z"/>
		</g>
	</g>
	<g>
		<g>
			<path class="st3" d="M294.87,149.75c-2.74-1.08-5.56,1.6-7.13,3.51c-1.37,1.67-2.32,3.49-3.35,5.37
				c-1.44,2.63-2.35,5.62-2.72,8.59c-0.29,2.33-0.16,5.61,2.24,6.85c2.14,1.1,4.04-2.14,1.89-3.24c-0.15-0.08-0.35-0.27-0.13-0.07
				c-0.26-0.25,0.04,0.16-0.1-0.17c-0.15-0.33,0,0.08-0.1-0.27c-0.05-0.19-0.12-0.47-0.14-0.62c-0.12-0.96,0-2.11,0.19-3.1
				c0.41-2.16,1.12-4.3,2.17-6.23c0.67-1.23,1.28-2.52,2.09-3.66c0.69-0.98,1.51-1.98,2.46-2.73c0.34-0.27,0.86-0.55,1.11-0.65
				c0.1-0.03,0.19-0.06,0.29-0.08c-0.16,0.02-0.17,0.02-0.04,0.02c0.14,0,0.12,0-0.06-0.02c0.11,0.03,0.22,0.06,0.32,0.11
				c0.94,0.37,2.06-0.41,2.31-1.31C296.47,150.99,295.81,150.13,294.87,149.75L294.87,149.75z"/>
		</g>
	</g>
	<g>
		<g>
			<path class="st3" d="M34.74,80.66c0,0-0.39-0.09-0.22-0.04c-0.1-0.08-0.13-0.1-0.07-0.04c0.05,0.05,0.04,0.03-0.03-0.05
				c0.05,0.07,0.1,0.15,0.14,0.23c0.08,0.14,0.01-0.01,0.05,0.09c0.17,0.42,0.27,0.89,0.32,1.34c0.06,0.48,0.04,0.98,0.05,1.46
				c0.02,0.76-0.08,1.53-0.28,2.27c-0.05,0.21-0.12,0.42-0.19,0.62c-0.02,0.05-0.04,0.1-0.06,0.15c0.03-0.06,0.03-0.07,0-0.01
				c-0.03,0.07-0.07,0.14-0.11,0.21c-0.04,0.07-0.09,0.15-0.14,0.22c0.13-0.19,0-0.01-0.04,0.02c-0.15,0.13,0.17-0.1,0-0.01
				c0.06-0.03,0.39-0.08,0.24-0.08c-1.29,0.02-1.29,2.02,0,2c1.17-0.02,1.76-1.17,2.08-2.13c0.35-1.03,0.51-2.18,0.48-3.26
				c-0.02-0.83-0.03-1.63-0.19-2.45c-0.22-1.13-0.74-2.41-2.04-2.54c-0.54-0.05-1,0.5-1,1C33.74,80.25,34.2,80.61,34.74,80.66
				L34.74,80.66z"/>
		</g>
	</g>
	<g>
		<g>
			<path class="st3" d="M72.77,80.51c0.4,0.17,0.32,0.07,0.52,0.46c0.19,0.38,0.32,0.93,0.38,1.4c0.17,1.32,0.04,2.73-0.18,4.03
				c-0.26,1.59-0.81,3.14-1.26,4.69c-0.66,2.32-1.82,4.55-3.19,6.53c-0.59,0.86-1.29,1.74-2.12,2.38c-0.17,0.14-0.37,0.25-0.56,0.37
				c-0.01,0.01-0.56,0.28-0.28,0.14c-0.09,0.04-0.54,0.16-0.19,0.07c-0.22-0.01-0.22,0.01,0.01,0.04c-0.1-0.02-0.21-0.05-0.31-0.08
				c-2.31-0.73-3.29,2.89-1,3.62c2.69,0.85,5.18-1.43,6.71-3.36c1.97-2.5,3.61-5.51,4.49-8.57c0.62-2.18,1.29-4.28,1.54-6.55
				c0.3-2.67,0.32-7.14-2.68-8.41c-0.93-0.4-2.01-0.28-2.57,0.67C71.64,78.73,71.83,80.11,72.77,80.51L72.77,80.51z"/>
		</g>
	</g>
	<g>
		<g>
			<path class="st3" d="M61.21,80.31c0.14,0.03,0.44,0.17,0.18,0.03c0.31,0.17-0.06-0.13,0.18,0.17c0-0.01,0.33,0.54,0.43,0.77
				c0.45,1.06,0.62,2.28,0.7,3.42c0.1,1.4-0.05,2.82-0.12,4.22c-0.1,2-0.61,4-1.31,5.87c-0.32,0.86-0.8,1.85-1.34,2.51
				c-0.13,0.16-0.28,0.32-0.43,0.46c-0.27,0.25,0.1-0.03-0.21,0.16c-0.3,0.19,0.1-0.05-0.08,0.04c-0.14,0.04-0.1,0.04,0.12,0
				c-0.1,0.01-0.2,0-0.3-0.01c-2.41-0.19-2.39,3.56,0,3.75c2.51,0.19,4.26-2.35,5.18-4.33c1.19-2.57,1.95-5.45,2.1-8.29
				c0.11-2.08,0.24-4.05-0.06-6.12c-0.34-2.33-1.3-5.77-4.04-6.27c-1-0.18-2.02,0.27-2.31,1.31C59.65,78.91,60.21,80.13,61.21,80.31
				L61.21,80.31z"/>
		</g>
	</g>
	<g>
		<path class="st4" d="M214.73,350.99l-24.84,37.11c-1.72,2.58-4.97,2.9-7.24,0.72l-63.7-60.94c-2.28-2.18-2.73-6.04-1.01-8.62
			l32.12-27.44"/>
		<path class="st4" d="M214.52,351.32l-23.49,35.16c-1.7,2.54-4.91,2.84-7.19,0.68l-63.57-60.57c-2.27-2.17-2.74-5.98-1.05-8.52
			l31.74-26.95c2.01-2,5.74-2.02,8.01,0.15l54.49,51.54C215.75,344.96,216.21,348.78,214.52,351.32z"/>
		<path class="st5" d="M200.62,365.77c0.57-0.14,1.12-0.46,1.45-0.95c0.68-1.03,0.21-2.41-0.43-3.46c-0.3-0.49-0.65-0.98-1.13-1.31
			c-1.51-1.03-3.68,0.92-3.86,2.49C196.43,364.61,198.72,366.24,200.62,365.77z"/>
		<g>
			
				<linearGradient id="SVGID_1_" gradientUnits="userSpaceOnUse" x1="385.5453" y1="1769.3573" x2="449.8197" y2="1739.3856" gradientTransform="matrix(0.6989 -0.6948 -0.7087 -0.7047 1117.6704 1863.1694)">
				<stop  offset="0.3368" style="stop-color:#FFFFFF"/>
				<stop  offset="0.5266" style="stop-color:#A0D9F7"/>
				<stop  offset="0.7044" style="stop-color:#FFFFFF"/>
			</linearGradient>
			<path class="st6" d="M204.59,345.75l-20.47,30.65c-1.48,2.21-4.2,2.53-6.08,0.71l-52.59-50.91c-1.88-1.82-2.21-5.09-0.73-7.3
				l27.29-23.74c1.82-1.84,4.98-1.74,6.86,0.08l44.98,43.21C205.74,340.26,206.06,343.54,204.59,345.75z"/>
			<g>
				<path class="st7" d="M170.23,319.69c4.31,4.36,5.82,10.62,3.88,15.42c-2.02,5-7.19,7.81-13.05,6.86
					c-5.64-0.91-10.81-5.48-12.6-11.06c-1.82-5.66,0.08-11.4,4.45-14.13C157.86,313.68,165.15,314.67,170.23,319.69
					c1.42,1.41,3.24-0.4,1.82-1.82c-5.36-5.3-12.91-7.03-18.79-4.7c-5.9,2.34-9.31,8.71-8.11,15.61c1.19,6.87,6.63,13.23,13.5,15.4
					c6.97,2.2,13.75-0.17,17.1-5.52c3.21-5.13,2.64-12.82-1.83-18.63c-0.58-0.75-1.2-1.47-1.87-2.15
					C170.63,316.45,168.82,318.26,170.23,319.69z"/>
				<path class="st8" d="M159.33,309.71c1.55,6.98,3.11,13.96,4.66,20.93c0.22,1,0.44,1.99,0.66,2.99c0.54-0.54,1.08-1.08,1.63-1.63
					c-3.59-1.07-7.18-2.15-10.77-3.22c-0.52-0.16-1.04-0.31-1.57-0.47c-1.84-0.55-2.37,2.18-0.51,2.74
					c3.59,1.07,7.18,2.15,10.77,3.22c0.52,0.16,1.04,0.31,1.57,0.47c1.16,0.35,1.87-0.55,1.63-1.63
					c-1.55-6.98-3.11-13.96-4.66-20.93c-0.22-1-0.44-1.99-0.66-2.99c-0.17-0.78-1.16-1.3-1.84-1.17
					C159.42,308.17,159.16,308.92,159.33,309.71L159.33,309.71z"/>
			</g>
			<path class="st9" d="M196.47,344.62l-14.41,20.5c-1.1,1.57-3.35,1.76-4.7,0.41l-4.62-4.62c-1.11-1.11-1.21-2.89-0.22-4.12
				l15.15-19.76c1.15-1.42,3.28-1.54,4.58-0.24l3.87,3.87C197.18,341.72,197.33,343.39,196.47,344.62z"/>
		</g>
	</g>
	<path class="st10" d="M153.3,303.42c-0.53-10.08,1.65-16.69,14.3-14.26c2.88,0.55,6.95-0.16,8-2.89c0.3-0.77,0.8-2.15,1.18-2.89
		c0.85-1.62,2.14-2.05,3.97-2.19s4.68,0.08,6.51,0c5.17-0.22,9.5-4.99,9.71-10.16c0.12-2.9-1.2-5.26-1.91-8.07s-0.55-5.98,1.49-8.04
		c1.94-1.95,5.23-2.34,6.77-4.62c0.91-1.35,0.71-3.55,0.72-5.17c0.02-4.41-0.54-9.25-3.93-12.07c-2.56-2.13-6.06-1.91-9.39-1.86
		c-7.21,0.11-14.24,1.08-21.3,2.53c-1.98,0.41-4.35,0.35-5.56-1.27c-0.76-1.01-0.55-2.38-0.39-3.63c0.41-3.17,1.49-6.45,3.52-8.92
		c5.43-6.58,16.73-5.01,22.62-11.17c4.71-4.93,8.66-16.67,2.62-19.83c-6.81-3.56,0.4-8.8,3.71-13.14c1.99-2.6,1.83-4.48,1.83-4.48
		c6.63-8.91,16.56-8.61,24.14-18.72l49.35,6.14l-0.23-14.43L60.76,84.83l-16.4-9.72c-3.44-1.77-8.26-2.26-12.05-3.43
		c-4.44-1.37-8.24-1.91-12.94-1.81c-2.61,0.05-4.17,2.38-1.64,2.99c10.16,2.47,11.11,4.16,17.13,5.27c0.81,0.15,1.15,0.46,1.38,1.11
		c0.22,0.64,0.6,1.53-0.2,1.69c-0.79,0.15-1.91,0.18-2.71,0.03c-4.65-0.86-9.65-0.53-14.37-0.21c-2.05,0.14-4.2,0.7-4.59,2.33
		c-0.25,1.04,0.13,2.61,1.39,2.57c9.38-0.26,12.46,1.29,16.98,1.01c0.48-0.03,2.29-0.3,2.71-0.1c0.86,0.39,1.22,1.84,0.56,2.4
		c-0.67,0.56-2.77,0.61-3.72,0.77c-1.62,0.26-3.33,0.48-4.94,0.77c-3.23,0.57-10,2.24-9.64,4.56c0.23,1.44,0.94,2.54,2.85,1.95
		c6.75-2.1,10.53-2.26,14.06-3.03c1.22-0.27,3.16-0.28,3.58,0.7c0.47,1.08-1.06,1.61-2.19,2.26c-1.87,1.07-7.76,5.52-7.97,6.33
		c-0.42,1.6,2.23,2.07,2.99,1.43c4.09-3.46,9.69-3.83,12.32-4.77c1.33-0.48,4.99-1.03,7.2-1.15c3.02-0.16,5.64-1.17,6.85-3.06
		c0.05-0.07,12.74,7.15,31.56,11.45c2.41,0.55,16.53,12.1,34.16,11.52c0,0-8.29,11.87-5.57,19.38c2.05,5.64-25.27,16.21-21.12,41.85
		c0.55,3.42,0.8,7.54,0.52,10.99c-0.56,7.03-4.7,12.96-5.01,20c-0.42,9.66,6.9,19.45,16.53,20.42c2.54,0.26,5.57,0.04,8.07,0.52
		s5.36,2.21,6.16,4.63c1.15,3.49-1.65,6.65-3.13,10.02c-1.74,3.98-1.35,9.11,0.77,12.91c2.12,3.8,5.51,6.24,9.81,6.85
		c12.72,1.83,23.3-13.44,36.08-12.04c4.49,0.49,8.69,2.93,10.33,7.13c1.65,4.2,0.49,9.78-3.37,12.11c-1.08,0.65-2.5,1.24-2.78,2.47
		c-0.45,1.96,2.02,3.57,2.78,5.43c0.99,2.4-1.53,4.67-4.11,5.04s-5.17-0.52-7.76-0.73c-2.36-0.19-15.03,1.18-10.05,18.33"/>
	<path class="st11" d="M215.46,149.02c9.83,6.11,17.27,6.91,30.24,7.81c1,0.07,19.82,10.24,44.54,13.54l-0.56-0.05
		c-0.25,2.23,0.79,4.39,3.04,6.42c1.64,1.49,3.68,3.74,4.41,4.95c1.44,2.39,6.1,6.72,7.08,11.99c0.18,0.98,2.5,2.72,3.19,1.22
		c0.35-0.76-1.29-8.05-2.05-10.07c-0.47-1.22-1.37-2.63-0.32-3.17c0.95-0.49,2.27,0.36,3.04,1.34c2.25,2.82,5.05,5.24,8.95,11.14
		c1.1,1.67,2.65,1.98,3.74,1.01c1.75-1.56-2.66-7.56-4.8-10.03c-1.07-1.24-2.15-2.47-3.24-3.69c-0.64-0.72-2.12-1.82-2.28-2.68
		c-0.16-0.86,0.57-2.05,1.48-1.81c0.45,0.12,1.55,1.09,1.91,1.42c3.32,3.08,6.98,4.16,14.08,10.29c0.96,0.83,2.58,0.01,3.05-0.96
		c0.73-1.51-0.93-3.48-2.43-4.88c-3.45-3.24-6.98-6.53-11.12-8.8c-0.72-0.39-1.32-0.86-1.84-1.48c-0.52-0.62-0.43-1.2,0.15-1.56
		c0.59-0.36,1.1-0.25,1.82,0.15c5.36,2.94,7.12,2.09,16.55,6.6c2.35,1.12,3.68-1.3,1.7-2.99c-3.58-3.05-7.69-5.49-12-7.23
		c-3.68-1.49-8.94-4.37-12.72-5.18"/>
	<path class="st12" d="M151.29,304.03c-4.76-13.5,4.86-18.96,10.05-18.33c2.58,0.31,5.15,1.15,7.72,0.78s5.12-2.93,4.14-5.34
		c-0.76-1.86-3.36-3.08-2.91-5.03c0.28-1.23,1.64-1.81,2.72-2.46c3.86-2.33,5.33-7.7,3.69-11.9c-1.65-4.2-5.95-7.06-10.43-7.55
		c-12.78-1.4-23.11,13.82-35.83,11.99c-4.3-0.62-8.25-3.34-10.37-7.14c-2.11-3.8-2.34-8.59-0.6-12.57
		c1.48-3.37,4.34-6.75,3.19-10.24c-0.8-2.42-3.35-3.86-5.85-4.34s-5.09-0.23-7.62-0.49c-9.62-0.97-17.65-10.25-17.22-19.91
		c0.31-7.04,4.44-13.45,5-20.47c0.28-3.46,0.04-6.96-0.52-10.38c-4.16-25.65,23.16-37.18,21.11-42.82
		c-2.73-7.51,5.75-19.25,5.75-19.25c-17.64,0.59-31.74-10.75-34.15-11.3c-18.82-4.29-31.83-11.65-31.87-11.58
		c-1.21,1.89-3.39,2.9-6.41,3.06c-2.21,0.11-5.21,0.57-6.55,1.04c-2.63,0.94-8.98,1.35-13.07,4.81c-0.76,0.65-3.66,0.53-3.24-1.07
		c0.21-0.81,6.09-5.43,7.96-6.5c1.13-0.65,2.73-1.18,2.25-2.25c-0.42-0.97-1.99-1.15-3.2-0.89c-3.53,0.77-7.23,0.86-13.97,2.97
		c-1.91,0.6-3.31-0.14-3.53-1.58c-0.37-2.31,6.84-4.17,10.07-4.74c1.61-0.28,3.23-0.55,4.84-0.81c0.95-0.15,2.8-0.07,3.46-0.63
		c0.67-0.56,0.86-1.95,0-2.34c-0.42-0.19-1.89-0.14-2.37-0.11c-4.52,0.28-8.04-1.19-17.42-0.93c-1.27,0.03-2.01-1.63-1.76-2.67
		c0.39-1.63,2.92-2.1,4.97-2.25c4.72-0.33,9.53-0.65,14.18,0.21c0.8,0.15,1.57,0.17,2.36,0.02c0.79-0.15,1.09-0.66,0.87-1.31
		s-0.82-1.41-1.63-1.56c-6.01-1.11-6.71-2.36-16.87-4.82c-2.53-0.61-2.03-3.34,0.58-3.39c4.7-0.1,9.43,0.61,13.87,1.99
		c3.79,1.17,8.75,1.89,12.18,3.66"/>
	<path class="st11" d="M49.86,88.35c-7.85-2.09-3.72-11.57-3.72-11.57s-3.14-2.59-4.05-3.6c-1.91-2.13-2.83-9.65,0.05-11.63
		c1.49-1.03,2.19,3.96,3.4,5.98c1.08,1.81,1.94,2.65,3.24,3.75c1.12,0.94,2.4,1.69,3.57,2.57c2.58,1.94,4.58,4.55,5.51,7.21
		c0,0,34.97-0.12,45.81,5.41c0.76,0.39,26.75-7.27,51.78,5.59l47.74,14.56c14.44,0.03,26.64,6.17,48.77,22.79
		c3.74,2.81,25.43,9.91,43.46,26.53c0,0,6.29-1.85,9.62-1.13c1.51,0.33,2.97,0.88,4.5,1.1c1.79,0.26,3.63,0.06,5.41-0.26
		c2.6-0.46,7.59-4.9,7.79-2.11c-0.4,4.93-2.91,6.34-5.05,7.47c-1.72,0.91-8.24,1.37-8.24,1.37s-2.22,5.97-9.61,4.12"/>
	<path class="st12" d="M221.72,152.72c-7.58,10.11-21.58,10.89-23.92,19.52c-1.6,5.89-14.2,12-5.08,17.16
		c5.93,3.36,1.27,14.52-3.43,19.45c-5.89,6.17-17.11,4.74-22.54,11.32c-2.04,2.47-2.89,5.7-3.3,8.88c-0.16,1.25-0.23,2.65,0.53,3.66
		c1.21,1.62,3.67,1.32,5.65,0.92c7.06-1.45,14.26-2.23,21.46-2.35c3.33-0.05,6.94,0.14,9.5,2.27c3.39,2.82,3.64,7.85,3.62,12.26
		c-0.01,1.62-0.05,3.35-0.95,4.7c-1.54,2.29-4.88,2.55-6.83,4.5c-2.05,2.05-1.99,5.4-1.28,8.21s1.97,5.56,1.85,8.46
		c-0.21,5.17-5.17,9.41-10.34,9.63c-1.83,0.08-3.67-0.26-5.49-0.12c-1.83,0.14-3.77,0.9-4.62,2.53c-0.38,0.74-0.51,1.58-0.81,2.35
		c-1.05,2.73-4.36,3.68-7.24,3.13c-12.65-2.43-16.49,3.45-15.29,14.41"/>
	<path class="st12" d="M117.55,138.66c4.29,9.74,26.92,13.05,32.7,10.73"/>
	<path class="st12" d="M212.55,143.96c-11.33,38.44-51.9,17.49-58.17,6.43"/>
	<path class="st12" d="M157.23,135.71c-2.69,3.8-4.35,8.33-4.77,12.98"/>
	<g>
		<path class="st13" d="M23.22,193.45c7.99-17.32,17.59-54.96,30.97-66.16c22.49-6.79,41.55,32.51,9.2,31.52
			c-6.6-0.87-17.82-1.63-15.07-7.7c3.19-7.06,11.43,5.56,17.1,10.85c13.66,12.36-1.01,19.76-13.29,20.27
			c-19.68-2.31-31.3-16.33-43.48-31.96"/>
	</g>
	<g>
		<path class="st13" d="M252.23,105.51c0,0,4.17-18.02,6.58-27.15c1.2-4.56,2.83-9.76,6.03-11.44c3.03-1.6,6.15,0.97,7.5,4.7
			c1.36,3.73,1.37,8.31,1.36,12.73c-0.02,8.92-0.04,17.85-0.06,26.77"/>
		<path class="st13" d="M252.37,93.5c7.5,1.55,15,3.09,22.5,4.64"/>
		<path class="st14" d="M271.46,59.73c0.06,2.28,2.17,4.31,4.45,4.27s4.33-2.13,4.31-4.41C280.18,53.91,271.31,54.05,271.46,59.73z"
			/>
		<path class="st14" d="M252.9,54.67c0.06,2.28,2.17,4.31,4.45,4.27s4.33-2.13,4.31-4.41C261.62,48.85,252.76,49,252.9,54.67z"/>
	</g>
	<g>
		<path class="st13" d="M99.17,29.47c2.33,8.45,5.89,16.56,10.54,23.99c1.98,3.17,4.22,6.27,7.27,8.45s7.03,3.3,10.6,2.17
			c4.97-1.57,7.8-7.11,7.89-12.32s-2.25-10.23-4.28-15.03c-2.48-5.89-4.67-11.74-7.15-17.63c2.25,5.76,3.88,9.6,6.06,14.95
			c2.49,6.1,5.01,12.18,7.27,18.41c2.59,7.14,12.36,5.58,8.15-4.9"/>
		<path class="st14" d="M95.7,20.14c1.35,1.92,4.31,2.45,6.24,1.12c1.93-1.33,2.49-4.29,1.17-6.23
			C99.84,10.21,92.35,15.38,95.7,20.14z"/>
		<path class="st14" d="M110,15.78c1.35,1.92,4.31,2.45,6.24,1.12c1.93-1.33,2.49-4.29,1.17-6.23
			C114.15,5.84,106.65,11.01,110,15.78z"/>
	</g>
	<g>
		<path class="st14" d="M235.68,176.79c0.12,2.42,2.42,4.52,4.84,4.42c2.42-0.1,4.54-2.38,4.46-4.8
			C244.79,170.39,235.38,170.77,235.68,176.79z"/>
		<path class="st14" d="M248.85,190.12c0.12,2.39,2.38,4.46,4.77,4.36c2.39-0.1,4.48-2.34,4.4-4.73
			C257.84,183.81,248.55,184.18,248.85,190.12z"/>
		<path class="st13" d="M232.16,226.89c13.9,3.75,17.46-11.4,17.91-14.86c1-7.61-4.24-15.99-13.15-18.39
			c-9.09-2.45-17.49,5.78-18.49,13.85C217.87,211.99,220.22,223.67,232.16,226.89z"/>
	</g>
	<g>
		<path class="st14" d="M47.84,245.3c1.05,2.15,3.95,3.16,6.11,2.13s3.2-3.92,2.19-6.09C53.62,235.96,45.23,239.96,47.84,245.3z"/>
		<path class="st14" d="M61.77,241.17c1.05,2.15,3.95,3.16,6.11,2.13c2.16-1.03,3.2-3.92,2.19-6.09
			C67.55,231.82,59.16,235.82,61.77,241.17z"/>
		<path class="st13" d="M51.4,259.49c2.93-5.58,11.88-9.44,18.08-8.27c5.33,1.01,7.04,6.52,9.61,14.79
			c1.87,6.02,3.38,12.54,3.97,18.82c-3.57,1.7-7.18,3.42-11.06,4.21s-8.1,0.57-11.51-1.42s-5.78-6.02-5.09-9.91
			c0.56-3.14,2.96-5.71,5.75-7.27s5.96-2.25,9.08-2.93c2.67-0.58,5.63-1.12,8,0.25c2.29,1.32,1.86,2.95,2.82,6.07
			c0.78,2.52,1.09,6.07,2.13,8.5c0.64,1.5,2.26,2.81,3.9,2.87c1.63,0.06,7.59-1.98,5.11-7.58"/>
	</g>
	<g>
		<g>
			<path class="st3" d="M179.09,96.82c4.07,1.96,6.71,5.69,8.29,10.07c1.99,5.52,2.41,11.46,1.94,17.27
				c-0.94,11.82-5.84,24.58-14.91,32.56c-1.68,1.48-3.58,2.76-5.66,3.72c-1.52,0.71-3.73,1.27-5.32,1.33c-0.5,0.02-1,0.01-1.5-0.02
				c-0.25-0.02-0.5-0.04-0.74-0.07c0.51,0.07-0.29-0.06-0.32-0.07c-0.87-0.19-2.09-0.58-2.53-0.78c-2.05-0.97-3.45-2.14-4.91-3.89
				c-3.04-3.67-4.64-9.06-5.19-13.9c-0.74-6.45-0.09-12.99,1.59-19.24c1.85-6.88,4.92-13.67,9.56-19.13
				c3.53-4.16,7.93-7.68,13.24-8.65c1.33-0.24,2.08-1.86,1.75-3.08c-0.38-1.4-1.74-1.99-3.08-1.75c-5.51,1.01-10.38,4.47-14.15,8.48
				c-4.81,5.12-8.25,11.4-10.63,17.98c-2.5,6.93-3.81,14.42-3.54,21.79c0.22,6.14,1.48,12.52,4.66,17.85
				c2.64,4.44,6.84,8.17,12.03,9.16c5.04,0.96,10.11-0.48,14.37-3.22c11.16-7.18,17.51-20.99,19.62-33.68
				c1.13-6.8,1.22-13.84-0.43-20.57c-1.31-5.37-3.89-10.86-8.31-14.36c-1.03-0.82-2.11-1.54-3.3-2.12c-1.22-0.59-2.7-0.33-3.42,0.9
				C177.55,94.5,177.87,96.23,179.09,96.82L179.09,96.82z"/>
		</g>
	</g>
	<g>
		<g>
			<path class="st3" d="M184.47,102.15c1.69,1.03,2.83,2.35,3.86,4.29c1.08,2.04,1.77,4.61,2.09,7.11
				c0.81,6.34-0.18,12.93-1.87,19.08c-2.02,7.36-5.22,14.39-9.35,20.8c-3.27,5.06-7.22,9.86-11.99,13.57
				c-1.04,0.81-2.14,1.56-3.28,2.23c-0.53,0.32-1.08,0.62-1.63,0.91c-0.25,0.13-0.5,0.25-0.75,0.37c-0.11,0.05-0.75,0.34-0.52,0.24
				c-1.02,0.43-2.09,0.78-3.16,1.03c-0.24,0.05-0.48,0.1-0.71,0.15c-0.16,0.03-0.32,0.06-0.47,0.08c0.04-0.01,0.37-0.04,0.08-0.01
				c-0.5,0.06-1,0.09-1.5,0.09c-0.49,0-0.97-0.02-1.46-0.07c-0.3-0.03,0.08,0.01,0.12,0.02c-0.11-0.02-0.22-0.03-0.32-0.06
				c-0.25-0.05-0.5-0.1-0.75-0.17c-0.42-0.11-0.84-0.25-1.25-0.4c0.45,0.17-0.17-0.08-0.3-0.15c-0.23-0.12-0.46-0.24-0.68-0.37
				c-1.69-1-2.84-2.37-3.86-4.29c-2.42-4.57-2.62-10.63-2.15-15.92c0.65-7.3,2.86-14.57,5.9-21.21c3.01-6.56,6.85-12.83,11.75-18.16
				c1.94-2.12,4.05-4.14,6.38-5.83c1.98-1.44,4.37-2.85,6.42-3.58c1.06-0.38,2.14-0.67,3.25-0.85c1.33-0.22,2.08-1.87,1.75-3.08
				c-0.39-1.41-1.74-1.97-3.08-1.75c-5.72,0.97-10.84,4.49-15.04,8.33c-5.57,5.08-10.06,11.4-13.59,18.04
				c-3.93,7.38-6.89,15.41-8.19,23.69c-1.02,6.48-1.31,13.53,0.96,19.8c1.77,4.9,5.25,9.28,10.51,10.58
				c4.97,1.23,10.14-0.39,14.45-2.89c5.67-3.28,10.31-8.11,14.25-13.28c4.88-6.4,8.65-13.65,11.36-21.22
				c2.58-7.19,4.24-14.97,3.96-22.64c-0.21-5.79-1.54-12.06-5.65-16.4c-0.88-0.93-1.92-1.74-3.01-2.4
				C184.24,96.16,181.72,100.48,184.47,102.15L184.47,102.15z"/>
		</g>
	</g>
	<g>
		<g>
			<path class="st3" d="M190.35,105.34c2.42,2.66,3.53,6.4,3.66,10.1c0.15,4.57-0.94,9.17-2.76,13.35
				c-3.99,9.15-11.76,17.86-21.5,20.9c-2.03,0.63-3.82,0.97-5.9,0.96c-1.81,0-3.47-0.28-5.1-0.95c-3.17-1.32-5.55-4.19-6.64-7.43
				c-2.93-8.71,0.8-18.81,5.91-26.13c3.43-4.91,8-9.17,13.34-11.93c4.2-2.17,9.1-3.32,13.5-2.19c3.12,0.8,4.45-4.02,1.33-4.82
				c-11.15-2.86-22.54,4.37-29.48,12.54c-7.18,8.44-12.27,20.18-10.06,31.42c0.91,4.61,3.39,8.78,7.24,11.52
				c3.85,2.74,8.74,3.36,13.33,2.7c11.47-1.63,21.22-10.84,26.65-20.63c5.4-9.73,8.28-23.88,0.03-32.95
				C191.72,99.41,188.19,102.96,190.35,105.34L190.35,105.34z"/>
		</g>
	</g>
	<path class="st15" d="M205.82,65.84c0.09-3.36,0.3-4.29-1.16-5.72c-0.98-0.96-2.29-1.8-6.1-1.22"/>
	<path class="st15" d="M194.45,59.94c0.02,0.07-0.12,0.1-0.15,0.03s0.01-0.15,0.06-0.21c0.87-1.17,2.6-1.41,3.99-0.94
		c1.38,0.47,2.68,1.22,3.76,2.21c0.8,0.74,1.5,2,1.18,3.04"/>
	<path class="st10" d="M159.65,92.31c-0.09-0.6-0.58-2.04-0.58-3.99c0-1.26,0.07-3.24,1.17-3.89c2.63-1.56,4.22-3.53,5.64-3.31
		c2.62-7.28-0.09-2.84,2.53-10.12c0.94-2.61,3.15-4.9,4.96-7.01c1.66-1.92,3.55-2.44,5.94-3.31c7.46-2.72,20.22-0.3,25.98,5.16
		s8.38,12.63,6.07,20.22c-0.59,1.94-2.35,3.55-2.08,5.56c0.11,0.86,2.53,2.5,2.01,4.87c-1.56,7.1-7.27,6.41-9.5,8.36
		c-0.62,0.54-0.06,2.35-0.42,3.1c-0.33,2.96-1.5-0.85-5.28-0.76C184.64,107.47,161.13,101.79,159.65,92.31z"/>
	<path class="st12" d="M166.63,80.1c0.19-0.31,0.43-0.59,0.71-0.84c0.95-0.85,2.33-1.21,3.58-0.93s2.34,1.2,2.83,2.38"/>
	<path class="st16" d="M166.02,82.8c0.46,0.63,0.92,1.38,0.81,2.18c-0.08,0.62-0.5,1.13-1,1.43c-0.5,0.3-1.07,0.41-1.63,0.48
		c-0.68,0.08-1.39,0.11-2.05-0.11c-0.66-0.23-1.26-0.74-1.47-1.46c-0.47-1.61,0.99-2.88,2.14-3.52
		C164.05,81.09,165.19,81.66,166.02,82.8z"/>
	<path class="st12" d="M181.87,84.03c1.64-0.8,2.75-0.94,4.15-0.85c2.5,0.16,4.74,2.3,5.34,5.1"/>
	<path class="st12" d="M209.14,91.59c16.92-31.3-38.88-46.76-41.86-14.63c-0.29,3.13-1.24,4.42-1.24,4.42
		c-0.68-0.11-3.49,0.05-5.55,3.01c-1.23,1.78-1.31,5.11-0.48,7.11"/>
	<g>
		<g>
			<path class="st3" d="M165.18,94.62c-2.83-1.56-6.32-1.56-9.1,0.12c-3.25,1.96-4.81,5.71-4.2,9.4c0.11,0.67,0.94,1.04,1.54,0.87
				c0.71-0.19,0.98-0.87,0.87-1.54c-0.44-2.65,0.91-5.35,3.18-6.66c1.99-1.15,4.4-1.17,6.44-0.04
				C165.33,97.56,166.59,95.4,165.18,94.62L165.18,94.62z"/>
		</g>
	</g>
	<path class="st1" d="M168.88,71.12c-0.18,0.01-0.29-0.2-0.17-0.33c0.96-1.07,2.31-1.8,3.73-2.02c1.39-0.21,3.02,0.24,4.75,1.32
		c0.23,0.15,0.15,0.51-0.13,0.52L168.88,71.12z"/>
	<path class="st1" d="M198.63,80.41c0.11,0.07,0.27-0.01,0.27-0.14c0.04-1.2-0.51-2.36-1.22-3.32c-2.34-3.18-5.91-4.05-10.21-3.5
		c-0.12,0.02-0.16,0.18-0.06,0.24C189.11,74.7,197.11,79.5,198.63,80.41z"/>
	<path class="st10" d="M146.49,113.53c1.07-6.71,6.7-9.69,6.7-9.69c1.59-0.93,2.95-2.23,3.96-3.76c0.52-0.78,0.94-1.62,1.36-2.46
		c0.91-1.82,1.85-3.83,1.35-5.81l38.46,5.14l-4.15,11.49l-7.34,11.77l-20.91,8.31c0,0-11.77-1.38-12.74-2.22
		c-0.97-0.83-5.26-5.82-5.26-5.82L146.49,113.53"/>
	<path class="st12" d="M203.14,91.57c1.59-0.96,3.69-1.04,5.35-0.18c1.66,0.85,2.81,2.61,2.95,4.46c0.15,2.04-0.88,4.05-2.39,5.43
		c-1.51,1.38-3.45,2.21-5.42,2.77c-0.65,0.18-1.35,0.37-1.77,0.89c-1.08,1.32,0.29,3.85-1.14,4.79c-0.6,0.4-1.45,0.23-2.03-0.21
		s-0.94-1.1-1.29-1.73c-0.3-0.55-0.61-1.11-0.91-1.66"/>
	<path class="st12" d="M159.86,91.82c0.5,1.97-0.44,3.99-1.35,5.81c-0.42,0.84-0.84,1.68-1.36,2.46c-1.01,1.53-2.38,2.83-3.96,3.76
		c0,0-5.63,2.97-6.7,9.69"/>
	<path class="st17" d="M158.2,104.28c1.71,1.05,3.42,2.1,5.13,3.16c0.73,0.45,1.47,0.91,2.27,1.23c2.47,0.98,5.24,0.61,7.88,0.93
		c2.02,0.25,3.98,0.91,6.02,0.99s4.28-0.58,5.32-2.33c0.58-0.97,0.7-2.14,0.96-3.24c0.71-3.01,2.53-5.87,2.19-8.95
		c-1.31,0.32-2.62,0.64-3.94,0.97c-1.81,0.44-3.62,0.89-5.47,1.08c-2.54,0.26-5.12,0.04-7.64-0.37c-1.96-0.32-3.84-0.87-5.76-1.31
		c-1.1-0.25-2.21-0.28-3.02,0.61c-0.91,1-0.97,2.54-1.41,3.76C160.59,101.23,158.95,104.74,158.2,104.28z"/>
	<path class="st18" d="M181.88,105.37c-2.34-0.71-4.69-0.78-7.17-0.51c-0.33-0.27-0.75-0.53-1.29-0.77
		c-3.03-0.93-6.07-0.77-9.4-0.21c-1.4,0.24-2.76,0.51-3.14,2.21c3.05,2.1,7.2,4.3,10.93,3.24c0.19-0.03,0.37-0.07,0.55-0.11
		c2.5,1.29,5.3,2.14,7.91,1.4C183.51,110.1,186.07,107.28,181.88,105.37z"/>
	<g>
		<path class="st19" d="M158.35,95.6c1.16,5,12.86,6.73,17.88,6.85c8.58,0.2,10.74-4.22,12.11-7.56c-4.51,2.4-10.8,1.99-15.38,1.89
			c-4.57-0.1-9.4-2.45-12.01-5.3L158.35,95.6z"/>
	</g>
	<path class="st16" d="M189.92,89.55c0.59,0.62,1.18,1.35,1.05,2.14c-0.1,0.6-0.64,1.11-1.28,1.4s-1.37,0.4-2.1,0.47
		c-0.88,0.08-1.78,0.11-2.63-0.11c-0.84-0.22-1.62-0.73-1.89-1.43c-0.61-1.58,1.28-2.83,2.74-3.46
		C187.39,87.87,188.85,88.43,189.92,89.55z"/>
	<g>
		<path class="st19" d="M155.29,104.08c1.16,5,11.83,8.26,16.86,8.38c8.58,0.2,9.62-3.94,5.93-4.29
			c-18.34-1.74-17.98-6.44-20.43-6.9C156.44,101.04,155.29,104.08,155.29,104.08z"/>
	</g>
	<g>
		<g>
			<path class="st20" d="M154,104.07c2.8,5.46,9.03,8.36,14.88,9c3.97,0.44,8.06-0.16,11.81-1.48c2.9-1.02,4.74-3.25,5.98-6
				c1.46-3.23,2.16-6.7,3.08-10.1c0.26-0.95-0.62-1.75-1.54-1.54c-5.06,1.14-10.36,2.35-15.57,1.77c-4.04-0.45-8.79-1.88-11.47-5.13
				c-1.03-1.24-2.79,0.54-1.77,1.77c2.96,3.58,8.09,5.18,12.53,5.77c5.67,0.76,11.44-0.52,16.95-1.77
				c-0.51-0.51-1.03-1.03-1.54-1.54c-0.71,2.63-1.28,5.29-2.19,7.86c-0.81,2.28-1.98,4.95-4.24,6.13c-3.01,1.56-7,2.01-10.35,1.88
				c-3.01-0.11-6.03-0.85-8.69-2.3c-2.39-1.3-4.48-3.15-5.73-5.59C155.43,101.38,153.27,102.64,154,104.07L154,104.07z"/>
		</g>
	</g>
	<path class="st1" d="M146.02,122.74c0.15,2.09-0.48,3.11-1.29,3.42c-0.72,0.28-1.41,0.11-1.41,0.11s0.38,0.34,1.01,0.76
		c1.34,0.91,2.85,1.52,4.35,1.92c24.55,6.47,42.61,1.45,48.41-22.55c0.79-3.28,1.87-7.14,2.3-11.26c0.05-0.5-0.42-0.53-0.88-0.31
		c-1.07,0.51-1.82,3.29-2.25,5.06c-7.06,29.2-45.72,30.3-38.64,14.43c-1.6,3.58-4.22,5.18-7.83,3.34c-2.68-1.37-2.97-5.14-2.16-7.7
		C147.63,109.96,145.08,110.03,146.02,122.74z"/>
	<path class="st11" d="M178.48,81.8c-3.33,4.03-6.53,3.77-9.08,3.67c-1.23-0.04-3.45-0.77-4.65-0.49c-1.2,0.28-1.67,1.46-1.78,2.72
		c-0.09,1.04,0.8,2.29,1.51,3.03c2.52,2.62,6.29,3.92,9.84,3.37"/>
	<g>
		<g>
			<path class="st3" d="M201.83,108.79c2.5,0.68,4.38,2.68,4.83,5.25c0.44,2.49-0.74,5.14-2.86,6.51c-2.16,1.39-4.93,1.41-7.1,0.03
				c-2.1-1.33-3.27-3.89-2.94-6.35c0.41-3.01,2.83-5.18,5.77-5.61c0.67-0.1,1.04-0.94,0.87-1.54c-0.2-0.72-0.87-0.97-1.54-0.87
				c-3.52,0.52-6.48,3.19-7.37,6.64c-0.85,3.31,0.28,6.98,2.93,9.16c2.75,2.27,6.53,2.72,9.75,1.19c3.17-1.51,5.22-4.97,5.05-8.47
				c-0.19-3.95-2.94-7.31-6.74-8.35C200.94,105.96,200.28,108.37,201.83,108.79L201.83,108.79z"/>
		</g>
	</g>
	<g>
		<g>
			<path class="st3" d="M59.53,98.02c-0.01,0-0.46-0.07-0.21-0.03c0.11,0.02-0.05-0.15,0.07,0.05c-0.2-0.35-0.17-0.09-0.4-0.49
				c-0.35-0.61-0.56-1.36-0.71-2.12c-0.44-2.14-0.37-4.43-0.1-6.58c0.26-2.12,0.76-4.34,1.7-6.26c0.34-0.69,0.72-1.36,1.21-1.88
				c0.3-0.32,0.16-0.14,0.43-0.34c0.14-0.11-0.23,0.02,0.08-0.02c-0.32,0.04-0.1,0.01,0.1,0.03c2.41,0.19,2.39-3.56,0-3.75
				c-2.11-0.16-3.72,1.69-4.67,3.34c-1.49,2.58-2.18,5.58-2.56,8.5c-0.36,2.84-0.4,5.86,0.34,8.65c0.5,1.85,1.59,4.16,3.7,4.53
				c1,0.17,2.02-0.27,2.31-1.31C61.09,99.42,60.53,98.2,59.53,98.02L59.53,98.02z"/>
		</g>
	</g>
	<g>
		<g>
			<path class="st3" d="M34.41,87.04c0.07,0.01,0.31,0.09,0.27,0.07c-0.08-0.04,0.16,0.18,0.03,0.03c-0.08-0.09-0.01,0,0.02,0.04
				c-0.04-0.05-0.07-0.11-0.11-0.16c-0.04-0.06-0.07-0.13-0.1-0.19c0.05,0.1,0.02,0.05-0.01-0.02c-0.06-0.17-0.11-0.34-0.16-0.51
				c-0.2-0.81-0.23-1.66-0.2-2.5c0.03-0.82,0.15-1.63,0.4-2.41c0.03-0.09,0.06-0.18,0.09-0.27c0.01-0.03,0.03-0.07,0.04-0.1
				c-0.03,0.06-0.03,0.07,0,0.01c0.06-0.12,0.13-0.24,0.2-0.36c0.09-0.16-0.06,0.05,0.01-0.01c0.04-0.04,0.08-0.08,0.12-0.12
				c-0.03,0.03-0.16,0.11-0.05,0.06c-0.05,0.03-0.36,0.08-0.24,0.08c1.29-0.02,1.29-2.02,0-2c-1.01,0.02-1.58,0.89-1.93,1.73
				c-0.44,1.07-0.6,2.26-0.65,3.41c-0.04,1.14,0.02,2.36,0.39,3.45c0.31,0.9,0.83,1.7,1.85,1.8c0.54,0.05,1-0.5,1-1
				C35.41,87.46,34.95,87.09,34.41,87.04L34.41,87.04z"/>
		</g>
	</g>
	<g>
		<g>
			<path class="st3" d="M65.61,100.54c0.45,0.19,0.01-0.12,0.04-0.07c-0.19-0.31-0.23-0.43-0.32-0.79
				c-0.25-0.95-0.25-1.95-0.19-2.92c0.14-2.76,0.94-5.5,1.95-8.05c0.85-2.14,1.97-4.32,3.47-6.1c0.53-0.63,1.11-1.26,1.82-1.68
				c0.36-0.22,0.37-0.17,0.63-0.27c0.18-0.07-0.23-0.03,0.09,0c-0.32-0.02-0.04-0.01,0.13,0.05c2.31,0.73,3.29-2.89,1-3.62
				c-2.27-0.72-4.47,0.86-5.93,2.44c-2.16,2.34-3.65,5.25-4.82,8.19c-1.26,3.2-2.18,6.75-2.11,10.22c0.05,2.55,0.72,5.17,3.25,6.24
				c0.93,0.39,2.06-0.42,2.31-1.31C67.21,101.77,66.54,100.94,65.61,100.54L65.61,100.54z"/>
		</g>
	</g>
	<g>
		<g>
			<path class="st3" d="M284.36,174.26c2.02,0.82,4.2-0.6,5.64-1.91c2.12-1.93,3.72-4.52,4.95-7.09c1.4-2.94,2.49-6.11,2.7-9.37
				c0.14-2.12-0.22-4.87-2.33-5.95c-2.14-1.1-4.04,2.14-1.89,3.24c0.11,0.06,0.38,0.3,0.13,0.07c0.2,0.2,0.03-0.07,0.06,0.09
				c0.01,0.07,0.17,0.38,0.08,0.15c0.07,0.19,0.12,0.41,0.16,0.61c0.13,0.68,0.08,1.62-0.01,2.39c-0.29,2.5-1.2,4.98-2.3,7.23
				c-0.98,1.99-2.16,3.95-3.73,5.53c-0.53,0.54-1.05,1-1.73,1.35c-0.29,0.15,0.01,0.01-0.15,0.06c-0.13,0.04-0.28,0.05-0.41,0.11
				c0.19-0.08,0.02-0.09,0.24,0.01c-0.12-0.06-0.28-0.07-0.41-0.13c-0.94-0.38-2.06,0.41-2.31,1.31
				C282.76,173.03,283.42,173.88,284.36,174.26L284.36,174.26z"/>
		</g>
	</g>
	<g>
		<g>
			<path class="st3" d="M281.56,173.79c2.21,0.57,4.15-0.95,5.47-2.57c2.01-2.46,3.36-5.43,4.36-8.42
				c1.09-3.25,1.88-6.86,1.66-10.31c-0.15-2.36-0.79-4.95-3.23-5.84c-2.27-0.83-3.25,2.79-1,3.62c-0.18-0.07-0.04,0.09-0.08,0.01
				c0.16,0.34,0.22,0.4,0.32,0.77c0.25,0.9,0.28,1.84,0.26,2.77c-0.05,2.72-0.69,5.42-1.55,7.99c-0.74,2.22-1.72,4.4-3.07,6.32
				c-0.42,0.6-1,1.3-1.53,1.7c-0.13,0.1-0.55,0.34-0.45,0.29c-0.15,0.08-0.34,0.14-0.06,0.05c-0.32,0.1,0.24,0.09-0.1,0
				C280.22,169.58,279.22,173.19,281.56,173.79L281.56,173.79z"/>
		</g>
	</g>
	<g>
		<g>
			<path class="st3" d="M271.3,171.07c2.3,1.26,4.78-0.17,6.61-1.61c2.68-2.11,4.84-4.92,6.66-7.77c2.02-3.17,3.82-6.72,4.63-10.41
				c0.54-2.45,0.77-5.53-1.57-7.13c-2-1.36-3.88,1.89-1.89,3.24c-0.14-0.1-0.09-0.11-0.03,0.09c0.11,0.37,0.1,0.46,0.1,0.91
				c0,1.03-0.24,2.04-0.52,3.02c-0.85,2.98-2.3,5.78-3.96,8.38c-1.45,2.28-3.13,4.46-5.16,6.26c-0.67,0.6-1.41,1.16-2.23,1.55
				c-0.35,0.16-0.01,0-0.32,0.12c-0.03,0.01-0.59,0.23-0.2,0.08c-0.06,0.02-0.63,0.09-0.13,0.04c-0.31,0.03,0.19,0.14-0.09-0.02
				C271.08,166.67,269.18,169.91,271.3,171.07L271.3,171.07z"/>
		</g>
	</g>
	<path class="st12" d="M203.62,104.05c-0.65,0.18-1.35,0.37-1.77,0.89c-1.08,1.32,0.29,3.85-1.14,4.79"/>
	<path class="st11" d="M105.33,86.27c-1.77,0.56-3.67,0.74-5.52,0.88"/>
	<path class="st12" d="M90.89,108.14c-0.94-0.98-2.36-2.22-2.97-3.44"/>
	<path class="st12" d="M251.71,129.21c1.73,1.82,3.39,3.84,4.7,5.99"/>
	<path class="st12" d="M245.04,156.79c2.33,0.15,4.56,0.22,6.72,0.01"/>
	<path class="st12" d="M122.94,119.15c0.26-0.49,2.61-3.56,3.16-4.02"/>
</g>
</svg>
